<svg width="8" height="14" viewBox="0 0 8 14" fill="none" xmlns="http://www.w3.org/2000/svg">
<path d="M7.70711 1.70711C8.09763 1.31658 8.09763 0.683417 7.70711 0.292893C7.31658 -0.0976311 6.68342 -0.0976311 6.29289 0.292893L7.70711 1.70711ZM1 7L0.292893 6.29289C-0.0976311 6.68342 -0.0976311 7.31658 0.292893 7.70711L1 7ZM6.29289 13.7071C6.68342 14.0976 7.31658 14.0976 7.70711 13.7071C8.09763 13.3166 8.09763 12.6834 7.70711 12.2929L6.29289 13.7071ZM6.29289 0.292893L0.292893 6.29289L1.70711 7.70711L7.70711 1.70711L6.29289 0.292893ZM0.292893 7.70711L6.29289 13.7071L7.70711 12.2929L1.70711 6.29289L0.292893 7.70711Z" fill="#666666"/>
</svg>
