<svg width="154" height="26" viewBox="0 0 154 26" fill="none" xmlns="http://www.w3.org/2000/svg">
<rect width="5" height="4.99704" rx="1" fill="#FFB600"/>
<rect y="6.99585" width="5" height="4.99704" rx="1" fill="#FFB600"/>
<rect y="13.9917" width="5" height="4.99704" rx="1" fill="#FFB600"/>
<rect x="7" width="5" height="4.99704" rx="1" fill="#FFB600"/>
<rect x="14" width="5" height="4.99704" rx="1" fill="#FFB600"/>
<rect x="7" y="6.99585" width="5" height="4.99704" rx="1" fill="white"/>
<rect x="14" y="6.99585" width="5" height="4.99704" rx="1" fill="white"/>
<rect x="21" y="6.99585" width="5" height="4.99704" rx="1" fill="white"/>
<rect x="7" y="14" width="5" height="4.99704" rx="1" fill="white"/>
<rect x="14" y="14" width="5" height="4.99704" rx="1" fill="white"/>
<rect x="21" y="14" width="5" height="4.99704" rx="1" fill="white"/>
<rect x="7" y="21" width="5" height="4.99704" rx="1" fill="white"/>
<rect x="14" y="21" width="5" height="4.99704" rx="1" fill="white"/>
<rect x="21" y="21" width="5" height="4.99704" rx="1" fill="white"/>
<path d="M41.6959 15.3996C41.5308 15.3403 41.3658 15.2776 41.2028 15.2157C41.1008 15.177 40.9997 15.1386 40.8998 15.1015C39.0395 14.3913 37.283 13.7162 37.283 12.1117C37.283 10.6299 38.8491 9.85833 40.3893 9.85833C42.0074 9.85833 43.7552 10.6299 43.9542 12.1029C44.0062 12.5851 44.3177 12.8657 44.7676 12.8657H46.0396C46.3597 12.8657 46.5414 12.743 46.6366 12.629C46.7318 12.5238 46.8529 12.3221 46.827 11.9889C46.6193 9.50761 44.335 7 40.3893 7C37.4906 7 34.4102 8.78865 34.4102 12.1029C34.4102 15.6173 37.4555 16.7433 39.9178 17.6538L39.9394 17.6617C40.0259 17.6924 40.1146 17.7253 40.2033 17.7582C40.292 17.7911 40.3806 17.8239 40.4672 17.8546L40.77 17.9686C42.5958 18.6437 44.4821 19.3452 44.4821 20.7656C44.4821 22.2298 42.5438 23.1329 40.7527 23.1329C38.5982 23.1329 37.0753 22.1421 36.8763 20.6253C36.8244 20.1343 36.5215 19.8449 36.0629 19.8449H34.791C34.4708 19.8449 34.2891 19.9677 34.1939 20.0817C34.0987 20.1869 33.9776 20.3886 34.0036 20.713C34.2891 24.3341 37.7069 25.9912 40.7614 25.9912C44.0062 25.9912 47.3634 24.0448 47.3634 20.7743C47.3634 17.4864 44.2225 16.329 41.6959 15.3996Z" fill="white"/>
<path fill-rule="evenodd" clip-rule="evenodd" d="M58.9841 7.01753C53.7319 7.01753 49.6218 11.1823 49.6218 16.5044C49.6218 21.8265 53.7319 25.9912 58.9841 25.9912C64.2363 25.9912 68.3464 21.8265 68.3464 16.5044C68.3464 11.1823 64.2363 7.01753 58.9841 7.01753ZM58.9841 23.1504C55.2807 23.1504 52.4945 20.2921 52.4945 16.5132C52.4945 12.7254 55.2807 9.87586 58.9841 9.87586C62.6875 9.87586 65.4736 12.7342 65.4736 16.5132C65.4736 20.2921 62.6875 23.1504 58.9841 23.1504Z" fill="white"/>
<path d="M74.3254 23.1943H81.0313C81.5245 23.1943 81.836 23.5099 81.8447 24.0185V25.1758C81.8447 25.6844 81.5332 26 81.0313 26H72.2574C71.7555 26 71.444 25.6844 71.444 25.1758V7.82418C71.444 7.31565 71.7555 7 72.2574 7H73.5121C74.0139 7 74.3254 7.31565 74.3254 7.82418V23.1943Z" fill="white"/>
<path d="M95.7496 7H86.2316C85.7297 7 85.4182 7.31565 85.4182 7.82418V25.1758C85.4182 25.6844 85.7297 26 86.2316 26H87.4863C87.9881 26 88.2996 25.6844 88.2996 25.1758V18.5911H93.2144C93.8374 18.5911 94.1575 16.7323 94.1575 16.3553C94.1575 16.2326 94.1402 16.1361 94.1143 16.0572C94.0537 15.8906 93.9239 15.7942 93.7682 15.7942H88.2996V9.80572H95.1959C95.8189 9.80572 96.139 7.94693 96.139 7.56991C96.139 7.44716 96.1217 7.35071 96.0958 7.2718C96.0352 7.09644 95.9054 7 95.7496 7Z" fill="white"/>
<path d="M131.018 19.275H132.42C132.714 19.275 132.948 19.3802 133.078 19.5819C133.199 19.7573 133.225 19.9852 133.138 20.222C131.918 23.6765 128.535 26 124.728 26C119.337 26 115.27 21.9229 115.27 16.5132C115.27 11.1034 119.337 7.0263 124.728 7.0263C128.518 7.0263 131.884 9.32349 133.112 12.7517C133.199 13.0323 133.173 13.2778 133.043 13.4619C132.905 13.6461 132.688 13.7513 132.411 13.7513H131.01C130.62 13.7513 130.317 13.5584 130.136 13.1814C129.219 11.1735 127.099 9.87586 124.719 9.87586C120.903 9.87586 118.134 12.6641 118.134 16.5132C118.134 20.3623 120.903 23.1504 124.719 23.1504C127.099 23.1504 129.227 21.8528 130.136 19.8537C130.326 19.4767 130.629 19.275 131.018 19.275Z" fill="white"/>
<path d="M139.022 7H137.767C137.266 7 136.954 7.31565 136.954 7.82418V25.1758C136.954 25.6844 137.266 26 137.767 26H139.022C139.524 26 139.835 25.6844 139.835 25.1758V7.82418C139.827 7.31565 139.515 7 139.022 7Z" fill="white"/>
<path d="M146.481 23.1943H153.187C153.688 23.1943 153.991 23.5099 154 24.0185V25.1758C154 25.6844 153.688 26 153.187 26H144.413C143.911 26 143.599 25.6844 143.599 25.1758V7.82418C143.599 7.31565 143.911 7 144.413 7H145.667C146.169 7 146.481 7.31565 146.481 7.82418V23.1943Z" fill="white"/>
<path d="M106.385 7.64515C106.25 7.23625 105.928 7 105.531 7H103.856C103.458 7 103.137 7.24534 103.001 7.64515L97.0288 24.9823C96.9103 25.3458 96.9949 25.582 97.0795 25.7092C97.1726 25.8455 97.3502 26 97.7055 26H99.0506C99.4566 26 99.7612 25.7638 99.8965 25.3549L104.693 11.0163L106.884 17.5858L108.483 22.2382H108.441L109.481 25.3549C109.617 25.7638 109.93 26 110.336 26H111.681C112.036 26 112.222 25.8365 112.307 25.7092C112.391 25.5729 112.476 25.3367 112.357 24.9823L106.385 7.64515Z" fill="#FFB600"/>
</svg>
