<svg width="24" height="24" viewBox="0 0 24 24" fill="none" xmlns="http://www.w3.org/2000/svg">
<circle cx="12" cy="12" r="12" fill="#333333"/>
<path d="M16.8371 6.37903C16.3317 5.87366 15.5121 5.87366 15.0067 6.37903L12 9.38544L8.99332 6.37903C8.48793 5.87366 7.66832 5.87366 7.16294 6.37903L6.37849 7.16327C5.87384 7.66864 5.87384 8.48804 6.37849 8.99341L9.38517 12L6.37849 15.0066C5.87384 15.512 5.87384 16.3314 6.37849 16.8367L7.16294 17.621C7.66832 18.1263 8.48793 18.1263 8.99332 17.621L12 14.6146L15.0067 17.621C15.5121 18.1263 16.3317 18.1263 16.8371 17.621L17.6215 16.8367C18.1262 16.3314 18.1262 15.512 17.6215 15.0066L14.6148 12L17.6215 8.99341C18.1262 8.48804 18.1262 7.66864 17.6215 7.16327L16.8371 6.37903Z" fill="#FF7771"/>
</svg>
