<svg width="260" height="45" viewBox="0 0 260 45" fill="none" xmlns="http://www.w3.org/2000/svg">
<rect y="0.5" width="8" height="8" rx="1" fill="#FFB600"/>
<rect y="12.5" width="8" height="8" rx="1" fill="#FFB600"/>
<rect y="24.5" width="8" height="8" rx="1" fill="#FFB600"/>
<rect x="12" y="0.5" width="8" height="8" rx="1" fill="#FFB600"/>
<rect x="24" y="0.5" width="8" height="8" rx="1" fill="#FFB600"/>
<rect x="12" y="12.5" width="8" height="8" rx="1" fill="#666666"/>
<rect x="24" y="12.5" width="8" height="8" rx="1" fill="#666666"/>
<rect x="36" y="12.5" width="8" height="8" rx="1" fill="#666666"/>
<rect x="12" y="24.5" width="8" height="8" rx="1" fill="#666666"/>
<rect x="24" y="24.5" width="8" height="8" rx="1" fill="#666666"/>
<rect x="36" y="24.5" width="8" height="8" rx="1" fill="#666666"/>
<rect x="12" y="36.5" width="8" height="8" rx="1" fill="#666666"/>
<rect x="24" y="36.5" width="8" height="8" rx="1" fill="#666666"/>
<rect x="36" y="36.5" width="8" height="8" rx="1" fill="#666666"/>
<path d="M70.9547 26.6467C70.6769 26.5468 70.3991 26.4413 70.1246 26.337C69.9531 26.2718 69.7828 26.2072 69.6147 26.1447C66.4831 24.9485 63.5263 23.8115 63.5263 21.1091C63.5263 18.6135 66.1627 17.314 68.7553 17.314C71.4791 17.314 74.4213 18.6135 74.7563 21.0944C74.8437 21.9066 75.368 22.3791 76.1255 22.3791H78.2666C78.8055 22.3791 79.1114 22.1724 79.2716 21.9804C79.4318 21.8032 79.6357 21.4635 79.592 20.9024C79.2425 16.7233 75.3972 12.5 68.7553 12.5C63.8759 12.5 58.6906 15.5125 58.6906 21.0944C58.6906 27.0134 63.8167 28.9098 67.9616 30.4432L67.9979 30.4566C68.1436 30.5083 68.2929 30.5637 68.4422 30.6191C68.5915 30.6744 68.7408 30.7298 68.8864 30.7815L69.3962 30.9735C72.4695 32.1105 75.6448 33.2919 75.6448 35.6841C75.6448 38.1502 72.3821 39.6712 69.3671 39.6712C65.7403 39.6712 63.1767 38.0025 62.8417 35.4478C62.7543 34.6209 62.2446 34.1336 61.4726 34.1336H59.3315C58.7925 34.1336 58.4867 34.3403 58.3264 34.5323C58.1662 34.7095 57.9623 35.0491 58.006 35.5955C58.4867 41.6943 64.24 44.4852 69.3816 44.4852C74.8437 44.4852 80.4951 41.207 80.4951 35.6989C80.4951 30.1613 75.2078 28.212 70.9547 26.6467Z" fill="#666666"/>
<path fill-rule="evenodd" clip-rule="evenodd" d="M100.057 12.5295C91.2153 12.5295 84.2967 19.5438 84.2967 28.5074C84.2967 37.4709 91.2153 44.4852 100.057 44.4852C108.898 44.4852 115.816 37.4709 115.816 28.5074C115.816 19.5438 108.898 12.5295 100.057 12.5295ZM100.057 39.7007C93.8225 39.7007 89.1324 34.8867 89.1324 28.5222C89.1324 22.1428 93.8225 17.3436 100.057 17.3436C106.291 17.3436 110.981 22.1576 110.981 28.5222C110.981 34.8867 106.291 39.7007 100.057 39.7007Z" fill="#666666"/>
<path d="M125.881 39.7746H137.169C138 39.7746 138.524 40.3062 138.539 41.1627V43.1119C138.539 43.9684 138.014 44.5 137.169 44.5H122.4C121.555 44.5 121.031 43.9684 121.031 43.1119V13.8881C121.031 13.0316 121.555 12.5 122.4 12.5H124.512C125.357 12.5 125.881 13.0316 125.881 13.8881V39.7746Z" fill="#666666"/>
<path d="M161.945 12.5H145.923C145.078 12.5 144.554 13.0316 144.554 13.8881V43.1119C144.554 43.9684 145.078 44.5 145.923 44.5H148.035C148.88 44.5 149.404 43.9684 149.404 43.1119V32.0219H157.678C158.726 32.0219 159.265 28.8913 159.265 28.2563C159.265 28.0496 159.236 27.8872 159.192 27.7543C159.09 27.4737 158.872 27.3113 158.61 27.3113H149.404V17.2254H161.013C162.062 17.2254 162.601 14.0948 162.601 13.4599C162.601 13.2531 162.572 13.0907 162.528 12.9578C162.426 12.6624 162.207 12.5 161.945 12.5Z" fill="#666666"/>
<path d="M221.314 33.1737H223.674C224.169 33.1737 224.562 33.3509 224.781 33.6906C224.985 33.9859 225.028 34.3699 224.883 34.7686C222.829 40.5868 217.134 44.5 210.725 44.5C201.651 44.5 194.805 37.6334 194.805 28.5222C194.805 19.4109 201.651 12.5443 210.725 12.5443C217.105 12.5443 222.771 16.4132 224.839 22.1871C224.985 22.6597 224.941 23.0731 224.722 23.3832C224.489 23.6933 224.125 23.8706 223.659 23.8706H221.3C220.644 23.8706 220.134 23.5457 219.828 22.9107C218.285 19.5291 214.716 17.3436 210.71 17.3436C204.287 17.3436 199.626 22.0395 199.626 28.5222C199.626 35.0048 204.287 39.7007 210.71 39.7007C214.716 39.7007 218.299 37.5152 219.828 34.1484C220.149 33.5134 220.659 33.1737 221.314 33.1737Z" fill="#666666"/>
<path d="M234.787 12.5H232.675C231.83 12.5 231.306 13.0316 231.306 13.8881V43.1119C231.306 43.9684 231.83 44.5 232.675 44.5H234.787C235.632 44.5 236.156 43.9684 236.156 43.1119V13.8881C236.142 13.0316 235.617 12.5 234.787 12.5Z" fill="#666666"/>
<path d="M247.343 39.7746H258.631C259.476 39.7746 259.985 40.3062 260 41.1627V43.1119C260 43.9684 259.476 44.5 258.631 44.5H243.861C243.017 44.5 242.492 43.9684 242.492 43.1119V13.8881C242.492 13.0316 243.017 12.5 243.861 12.5H245.973C246.818 12.5 247.343 13.0316 247.343 13.8881V39.7746Z" fill="#666666"/>
<path d="M179.848 13.5866C179.62 12.8979 179.079 12.5 178.41 12.5H175.59C174.921 12.5 174.38 12.9132 174.152 13.5866L164.098 42.786C163.899 43.3981 164.041 43.796 164.184 44.0103C164.34 44.2398 164.64 44.5 165.238 44.5H167.502C168.185 44.5 168.698 44.1021 168.926 43.4135L177 19.2642L180.688 30.3288L183.38 38.1643H183.308L185.06 43.4135C185.288 44.1021 185.815 44.5 186.498 44.5H188.762C189.36 44.5 189.674 44.2245 189.816 44.0103C189.959 43.7807 190.101 43.3828 189.902 42.786L179.848 13.5866Z" fill="#FFB600"/>
</svg>
