<svg width="16" height="16" viewBox="0 0 16 16" fill="none" xmlns="http://www.w3.org/2000/svg">
<path fill-rule="evenodd" clip-rule="evenodd" d="M16 8C16 12.4183 12.4183 16 8 16C3.58172 16 0 12.4183 0 8C0 3.58172 3.58172 0 8 0C12.4183 0 16 3.58172 16 8ZM7.13729 9.55493C7.18182 9.59249 7.23377 9.61127 7.29314 9.61127H8.85158C8.93321 9.61127 8.99629 9.58873 9.04082 9.54366C9.08534 9.49859 9.13729 9.42347 9.19666 9.31831C9.22635 9.1831 9.25232 9.08169 9.27458 9.01408C9.33395 8.84883 9.41929 8.69108 9.53061 8.54084C9.64935 8.39061 9.80891 8.20657 10.0093 7.98873C10.3358 7.62817 10.5807 7.30892 10.744 7.03099C10.9147 6.75305 11 6.43005 11 6.06197C11 5.73897 10.9072 5.42347 10.7217 5.11549C10.5436 4.8 10.243 4.53709 9.82004 4.32676C9.39703 4.10892 8.84787 4 8.17254 4C7.51206 4 6.94434 4.11643 6.46939 4.3493C5.99443 4.58216 5.63451 4.88638 5.38961 5.26197C5.14471 5.63005 5.01484 6.02066 5 6.4338C5 6.52394 5.02226 6.59906 5.06679 6.65915C5.11874 6.71174 5.18553 6.73803 5.26716 6.73803H6.62523C6.79592 6.73803 6.91095 6.64789 6.97032 6.46761C7.1039 5.90423 7.46011 5.62254 8.03896 5.62254C8.28386 5.62254 8.49165 5.6939 8.66234 5.83662C8.84045 5.97183 8.91837 6.15587 8.8961 6.38873C8.88868 6.54648 8.8256 6.70423 8.70686 6.86197C8.58813 7.01221 8.41002 7.20751 8.17254 7.44789C7.85343 7.76338 7.60111 8.04507 7.41558 8.29296C7.23748 8.54084 7.12245 8.82254 7.0705 9.13803V9.39718C7.0705 9.45728 7.09276 9.50986 7.13729 9.55493ZM7.11503 11.9211C7.16698 11.9737 7.23377 12 7.3154 12H8.74026C8.82189 12 8.88868 11.9737 8.94063 11.9211C9 11.8685 9.02969 11.8009 9.02969 11.7183V10.4338C9.02969 10.3512 9 10.2836 8.94063 10.231C8.88868 10.1784 8.82189 10.1521 8.74026 10.1521H7.3154C7.23377 10.1521 7.16698 10.1784 7.11503 10.231C7.06308 10.2836 7.03711 10.3512 7.03711 10.4338V11.7183C7.03711 11.8009 7.06308 11.8685 7.11503 11.9211Z" fill="#999999"/>
</svg>
