<svg width="14" height="8" viewBox="0 0 14 8" fill="none" xmlns="http://www.w3.org/2000/svg">
<path d="M12.2929 0.292893C12.6834 -0.097631 13.3166 -0.097631 13.7071 0.292893C14.0976 0.683417 14.0976 1.31658 13.7071 1.70711L12.2929 0.292893ZM7 7L7.70711 7.70711C7.31658 8.09763 6.68342 8.09763 6.29289 7.70711L7 7ZM0.292893 1.70711C-0.0976315 1.31658 -0.0976315 0.683417 0.292893 0.292894C0.683417 -0.0976308 1.31658 -0.0976308 1.70711 0.292894L0.292893 1.70711ZM13.7071 1.70711L7.70711 7.70711L6.29289 6.29289L12.2929 0.292893L13.7071 1.70711ZM6.29289 7.70711L0.292893 1.70711L1.70711 0.292894L7.70711 6.29289L6.29289 7.70711Z" fill="#333333"/>
</svg>
