<svg width="16" height="16" viewBox="0 0 16 16" fill="none" xmlns="http://www.w3.org/2000/svg">
<path d="M7.69933 4.99999C6.28192 4.99999 5.13288 6.11928 5.13288 7.49999C5.13288 8.05227 4.67327 8.49999 4.10631 8.49999C3.53934 8.49999 3.07973 8.05227 3.07973 7.49999C3.07973 5.01471 5.14799 3 7.69933 3C8.26629 3 8.7259 3.44771 8.7259 3.99999C8.7259 4.55228 8.26629 4.99999 7.69933 4.99999Z" fill="#999999"/>
<path fill-rule="evenodd" clip-rule="evenodd" d="M11.8765 10.5691C12.7956 9.45527 13.3455 8.04019 13.3455 6.49999C13.3455 2.91015 10.358 0 6.67275 0C2.98749 0 0 2.91015 0 6.49999C0 10.0898 2.98749 13 6.67275 13C8.03543 13 9.3027 12.6021 10.3588 11.9191L14.2475 15.7071C14.6484 16.0976 15.2984 16.0976 15.6993 15.7071C16.1002 15.3166 16.1002 14.6834 15.6993 14.2929L11.8765 10.5691ZM6.67275 11C9.22408 11 11.2923 8.98527 11.2923 6.49999C11.2923 4.01471 9.22408 2 6.67275 2C4.12142 2 2.05315 4.01471 2.05315 6.49999C2.05315 8.98527 4.12142 11 6.67275 11Z" fill="#999999"/>
</svg>
