<svg width="24" height="24" viewBox="0 0 24 24" fill="none" xmlns="http://www.w3.org/2000/svg">
<circle cx="12" cy="12" r="12" fill="#FFB600"/>
<path d="M13.9995 6.31278C13.9995 5.58793 13.3726 5.00016 12.5996 5.00015L11.3998 5C10.6273 5.00051 10.0005 5.58813 10 6.31246L10.0005 12.6872C10.0005 13.4121 10.6274 13.9998 11.4004 13.9999L12.6002 14C13.3727 13.9995 13.9995 13.4119 14 12.6875L13.9995 6.31278Z" fill="#333333"/>
<path d="M13.9995 16.3128C13.9995 15.5879 13.3726 15.0002 12.5996 15.0001L11.3998 15C10.6273 15.0005 10.0005 15.5881 10 16.3125L10.0005 17.6872C10.0005 18.4121 10.6274 18.9998 11.4004 18.9999L12.6002 19C13.3727 18.9995 13.9995 18.4119 14 17.6875L13.9995 16.3128Z" fill="#333333"/>
</svg>
