<svg width="20" height="16" viewBox="0 0 20 16" fill="none" xmlns="http://www.w3.org/2000/svg">
<path fill-rule="evenodd" clip-rule="evenodd" d="M17 1.66948e-07C17.5523 1.73534e-07 18 0.447715 18 1V10.1707C19.1652 10.5825 20 11.6938 20 13C20 14.6569 18.6569 16 17 16C15.3431 16 14 14.6569 14 13C14 11.6938 14.8348 10.5825 16 10.1707V1C16 0.447716 16.4477 1.60362e-07 17 1.66948e-07ZM17 12C16.4477 12 16 12.4477 16 13C16 13.5523 16.4477 14 17 14C17.5523 14 18 13.5523 18 13C18 12.4477 17.5523 12 17 12Z" fill="#999999"/>
<path fill-rule="evenodd" clip-rule="evenodd" d="M10 8.34742e-08C8.34315 6.37164e-08 7 1.34315 7 3C7 4.30622 7.83481 5.41746 9 5.82929V14.9091C9 15.5116 9.44772 16 10 16C10.5523 16 11 15.5116 11 14.9091L11 5.82929C12.1652 5.41746 13 4.30622 13 3C13 1.34315 11.6569 1.03232e-07 10 8.34742e-08ZM9 3C9 2.44771 9.44772 2 10 2C10.5523 2 11 2.44771 11 3C11 3.55228 10.5523 4 10 4C9.44772 4 9 3.55228 9 3Z" fill="#999999"/>
<path fill-rule="evenodd" clip-rule="evenodd" d="M3 0C3.55228 6.58592e-09 4 0.447715 4 1V5.17071C5.16519 5.58254 6 6.69378 6 8C6 9.30622 5.16519 10.4175 4 10.8293V15C4 15.5523 3.55229 16 3 16C2.44772 16 2 15.5523 2 15L2 10.8293C0.834808 10.4175 -1.55765e-08 9.30622 0 8C1.55765e-08 6.69378 0.834808 5.58254 2 5.17071V1C2 0.447716 2.44772 -6.58592e-09 3 0ZM2 8C2 7.44771 2.44772 7 3 7C3.55228 7 4 7.44771 4 8C4 8.55228 3.55228 9 3 9C2.44772 9 2 8.55228 2 8Z" fill="#999999"/>
</svg>
