<svg width="24" height="24" viewBox="0 0 24 24" fill="none" xmlns="http://www.w3.org/2000/svg">
<path d="M9.48613 10.89C9.33332 11.0367 9.11046 11.11 8.81756 11.11H7.71919V9.39H8.81756C9.11683 9.39 9.33968 9.47 9.48613 9.63C9.63895 9.78333 9.71536 9.99333 9.71536 10.26C9.71536 10.5267 9.63895 10.7367 9.48613 10.89Z" fill="#999999"/>
<path fill-rule="evenodd" clip-rule="evenodd" d="M12 22C17.5228 22 22 17.5228 22 12C22 6.47715 17.5228 2 12 2C6.47715 2 2 6.47715 2 12C2 17.5228 6.47715 22 12 22ZM14.5425 15.93C14.5935 15.9767 14.6508 16 14.7144 16H15.5072C15.5772 16 15.6345 15.9767 15.6791 15.93C15.7237 15.8833 15.746 15.8233 15.746 15.75V15.05C16.4336 14.9567 16.9812 14.7233 17.3887 14.35C17.7962 13.9767 18 13.4967 18 12.91C18 12.4967 17.9172 12.1567 17.7517 11.89C17.5861 11.6233 17.3282 11.4067 16.978 11.24C16.6278 11.0667 16.1566 10.9233 15.5645 10.81C15.2015 10.73 14.9214 10.6533 14.724 10.58C14.533 10.5 14.3929 10.4133 14.3037 10.32C14.221 10.2267 14.1796 10.11 14.1796 9.97C14.1796 9.76333 14.256 9.60667 14.4088 9.5C14.5616 9.39333 14.7813 9.34 15.0678 9.34C15.3162 9.34 15.5231 9.39333 15.6886 9.5C15.8606 9.60667 15.9656 9.73667 16.0038 9.89C16.042 9.95 16.0834 9.99333 16.128 10.02C16.1789 10.0467 16.2426 10.06 16.319 10.06H17.5798C17.6371 10.06 17.6848 10.04 17.723 10C17.7612 9.95333 17.7803 9.90333 17.7803 9.85C17.7676 9.59667 17.6816 9.34 17.5224 9.08C17.3633 8.82 17.1309 8.59 16.8252 8.39C16.526 8.18333 16.1662 8.04333 15.746 7.97V7.25C15.746 7.17667 15.7237 7.11667 15.6791 7.07C15.6345 7.02333 15.5772 7 15.5072 7H14.7144C14.6508 7 14.5935 7.02333 14.5425 7.07C14.4979 7.11667 14.4757 7.17667 14.4757 7.25V7.95C13.8389 8.03667 13.3359 8.27 12.9666 8.65C12.5973 9.02333 12.4126 9.47667 12.4126 10.01C12.4126 10.61 12.6005 11.0733 12.9761 11.4C13.3518 11.7267 13.9249 11.97 14.6953 12.13C15.1092 12.2233 15.4212 12.3067 15.6313 12.38C15.8415 12.4533 15.9943 12.5367 16.0898 12.63C16.1917 12.7233 16.2426 12.8433 16.2426 12.99C16.2426 13.1967 16.1471 13.36 15.9561 13.48C15.7651 13.6 15.4881 13.66 15.1251 13.66C14.8131 13.66 14.5648 13.6033 14.3802 13.49C14.2019 13.3767 14.0713 13.2333 13.9886 13.06C13.9376 13 13.8867 12.9567 13.8357 12.93C13.7912 12.8967 13.7307 12.88 13.6543 12.88H12.4508C12.3935 12.88 12.3426 12.9033 12.298 12.95C12.2598 12.99 12.2407 13.0367 12.2407 13.09C12.2535 13.4033 12.3426 13.7 12.5081 13.98C12.6801 14.2533 12.9316 14.4867 13.2627 14.68C13.6001 14.8733 14.0045 15 14.4757 15.06V15.75C14.4757 15.8233 14.4979 15.8833 14.5425 15.93ZM6.06686 14.93C6.1178 14.9767 6.1751 15 6.23878 15H7.47086C7.5409 15 7.59821 14.9767 7.64278 14.93C7.69372 14.8833 7.71919 14.8233 7.71919 14.75V12.53H8.6934L9.78222 14.73C9.85862 14.91 9.98916 15 10.1738 15H11.4441C11.495 15 11.5396 14.98 11.5778 14.94C11.6224 14.8933 11.6447 14.8433 11.6447 14.79C11.6447 14.7567 11.6351 14.72 11.616 14.68L10.3075 12.22C10.6768 12.0467 10.9665 11.7967 11.1767 11.47C11.3868 11.1433 11.4919 10.7467 11.4919 10.28C11.4919 9.55333 11.2563 8.99333 10.7851 8.6C10.3203 8.2 9.67079 8 8.83666 8H6.23878C6.1751 8 6.1178 8.02333 6.06686 8.07C6.02229 8.11667 6 8.17667 6 8.25V14.75C6 14.8167 6.02229 14.8767 6.06686 14.93Z" fill="#999999"/>
</svg>
