<svg width="100%" height="100%" viewBox="0 0 16 16" fill="none" xmlns="http://www.w3.org/2000/svg">
<path d="M6 8V6H4V8H6Z" fill="#999999"/>
<path d="M9 6V8H7V6H9Z" fill="#999999"/>
<path d="M9 12V10H7V12H9Z" fill="#999999"/>
<path d="M6 10V12H4V10H6Z" fill="#999999"/>
<path d="M12 6V8H10V6H12Z" fill="#999999"/>
<path d="M12 10V12H10V10H12Z" fill="#999999"/>
<path fill-rule="evenodd" clip-rule="evenodd" d="M6 0H4V1H2C0.895431 1 0 1.89543 0 3V14C0 15.1046 0.895431 16 2 16H14C15.1046 16 16 15.1046 16 14V3C16 1.89543 15.1046 1 14 1H12V0H10V1H6V0ZM10 4V3H6V4H4V3H2V14H14V3H12V4H10Z" fill="#999999"/>
</svg>
