<svg width="100%" height="100%" viewBox="0 0 12 12" fill="none" xmlns="http://www.w3.org/2000/svg">
<path d="M0.295364 10.2785C-0.0984548 10.6723 -0.0984548 11.3108 0.295364 11.7046C0.689184 12.0985 1.32769 12.0985 1.72151 11.7046L6 7.4261L10.2785 11.7046C10.6723 12.0985 11.3108 12.0985 11.7046 11.7046C12.0985 11.3108 12.0985 10.6723 11.7046 10.2785L7.42615 5.99995L11.7045 1.72153C12.0983 1.3277 12.0983 0.68919 11.7045 0.295367C11.3107 -0.0984555 10.6722 -0.0984559 10.2784 0.295367L6 4.57379L1.72162 0.295367C1.3278 -0.0984559 0.68929 -0.0984555 0.295471 0.295367C-0.098348 0.68919 -0.0983484 1.3277 0.295471 1.72153L4.57385 5.99995L0.295364 10.2785Z"/>
</svg>
