<svg width="16" height="16" viewBox="0 0 16 16" fill="none" xmlns="http://www.w3.org/2000/svg">
<path d="M12 8C12 10.2091 10.209 12 8 12C5.79102 12 4 10.2091 4 8C4 5.79086 5.79102 4 8 4C8.41016 4 8.80566 4.06168 9.17773 4.17624C8.4834 4.48981 8 5.18845 8 6C8 7.10458 8.89551 8 10 8C10.8115 8 11.5103 7.51666 11.8237 6.82214C11.9385 7.19452 12 7.59006 12 8Z" fill="#999999"/>
<path fill-rule="evenodd" clip-rule="evenodd" d="M16 8C16 12.4183 12.4185 16 8 16C3.58154 16 0 12.4183 0 8C0 3.58173 3.58154 0 8 0C12.4185 0 16 3.58173 16 8ZM14 8C14 11.3137 11.3135 14 8 14C4.68652 14 2 11.3137 2 8C2 4.68628 4.68652 2 8 2C11.3135 2 14 4.68628 14 8Z" fill="#999999"/>
</svg>
