<svg width="8" height="9" viewBox="0 0 8 9" fill="none" xmlns="http://www.w3.org/2000/svg">
<path d="M7.70711 2.20711C8.09763 1.81658 8.09763 1.18342 7.70711 0.792893C7.31658 0.402369 6.68342 0.402369 6.29289 0.792893L4 3.08579L1.70711 0.792893C1.31658 0.402369 0.683417 0.402369 0.292893 0.792893C-0.097631 1.18342 -0.097631 1.81658 0.292893 2.20711L2.58579 4.5L0.292893 6.79289C-0.0976311 7.18342 -0.0976311 7.81658 0.292893 8.20711C0.683418 8.59763 1.31658 8.59763 1.70711 8.20711L4 5.91421L6.29289 8.20711C6.68342 8.59763 7.31658 8.59763 7.70711 8.20711C8.09763 7.81658 8.09763 7.18342 7.70711 6.79289L5.41421 4.5L7.70711 2.20711Z" fill="white"/>
</svg>
