<svg width="24" height="24" viewBox="0 0 24 24" fill="none" xmlns="http://www.w3.org/2000/svg">
<circle cx="12" cy="12" r="12" fill="#666666"/>
<path d="M10.0005 7.68722C10.0005 8.41207 10.6274 8.99984 11.4004 8.99985L12.6002 9C13.3727 8.99949 13.9995 8.41187 14 7.68754L13.9995 6.31278C13.9995 5.58793 13.3726 5.00016 12.5996 5.00015L11.3998 5C10.6273 5.00051 10.0005 5.58813 10 6.31246L10.0005 7.68722Z" fill="white"/>
<path d="M13.9995 11.6303L13.9999 16.0001L14.6875 16C15.4119 16.0005 15.9995 16.6273 16 17.3998L15.9999 17.5996C15.9998 18.3726 15.4121 18.9995 14.6872 18.9995L12.6293 18.9997L12.6002 19L11.4004 18.9999L11.3898 18.9998L9.31246 19C8.58813 18.9995 8.00051 18.3727 8 17.6002L8.00015 17.4004C8.00016 16.6274 8.58793 16.0005 9.31278 16.0005L10.0004 16.0004L10.0001 12.9999L9.31246 13C8.58813 12.9995 8.00051 12.3727 8 11.6002L8.00015 11.4004C8.00016 10.6274 8.58793 10.0005 9.31278 10.0005L11.3768 10.0002C11.3845 10.0001 11.3921 10 11.3998 10L12.6875 10C13.0434 10.0003 13.3663 10.1517 13.6028 10.3973C13.8483 10.6338 13.9995 10.9568 13.9995 11.3128L13.9995 11.3626C13.9998 11.375 14 11.3874 14 11.3998L13.9999 11.5996C13.9999 11.6098 13.9997 11.6201 13.9995 11.6303Z" fill="white"/>
</svg>
