<svg width="24" height="24" viewBox="0 0 24 24" fill="none" xmlns="http://www.w3.org/2000/svg">
<path d="M16 12C16 14.2091 14.209 16 12 16C9.79102 16 8 14.2091 8 12C8 9.79086 9.79102 8 12 8C12.4102 8 12.8057 8.06168 13.1777 8.17624C12.4834 8.48981 12 9.18845 12 10C12 11.1046 12.8955 12 14 12C14.8115 12 15.5103 11.5167 15.8237 10.8221C15.9385 11.1945 16 11.5901 16 12Z" fill="#999999"/>
<path fill-rule="evenodd" clip-rule="evenodd" d="M20 12C20 16.4183 16.4185 20 12 20C7.58154 20 4 16.4183 4 12C4 7.58173 7.58154 4 12 4C16.4185 4 20 7.58173 20 12ZM18 12C18 15.3137 15.3135 18 12 18C8.68652 18 6 15.3137 6 12C6 8.68628 8.68652 6 12 6C15.3135 6 18 8.68628 18 12Z" fill="#999999"/>
<path d="M5 19L19 5" stroke="#999999" stroke-width="2.3" stroke-linecap="round"/>
</svg>
