<svg width="24" height="24" viewBox="0 0 24 24" fill="none" xmlns="http://www.w3.org/2000/svg">
<path d="M18 10C19.1046 10 20 9.10457 20 8C20 6.89543 19.1046 6 18 6C16.8954 6 16 6.89543 16 8C16 9.10457 16.8954 10 18 10Z" fill="#999999"/>
<path fill-rule="evenodd" clip-rule="evenodd" d="M0 6C0 3.79086 1.79086 2 4 2H20C22.2091 2 24 3.79086 24 6V18C24 20.2091 22.2091 22 20 22H4C1.79086 22 0 20.2091 0 18V6ZM4 4H20C21.1046 4 22 4.89543 22 6V15.1314L18.4544 11.5858L14.8176 15.2224L7.18088 7.58574L2 12.7674V6C2 4.89543 2.89543 4 4 4ZM18.4543 14.4142L22 17.9598V18C22 19.1046 21.1046 20 20 20H19.5951L16.2318 16.6366L18.4543 14.4142ZM2 15.596V18C2 19.1046 2.89543 20 4 20H16.7667L7.18098 10.4143L2 15.596Z" fill="#999999"/>
</svg>
